# xmcd
#
# Track frame offsets:
#	150
#	12200
#	29100
#	43043
#	57971
#	71500
#	82307
#	94256
#	110754
#	122622
#	136656
#	149770
#	164949
#	179609
#	193142
#	206534
#	220566
#	234199
#
# Disc length: 3308 seconds
#
# Revision: 1
# Processed by: cddbd v1.5.2PL0 Copyright (c) Steve Scherf et al.
# Submitted via: audiograbber 1.83.01
#
DISCID=160cea12
DTITLE=John Lee Hooker - Masters of Music [Disc 2]
DYEAR=1900
DGENRE=Blues
TTITLE0=Find me a Woman
TTITLE1=Don't Trust Nobody
TTITLE2=Alberta
TTITLE3=My Daddy was a Jockey
TTITLE4=Love Blues
TTITLE5=Gotta Boogie
TTITLE6=Strike Blues
TTITLE7=Helpless Blues
TTITLE8=Boggie Awhile
TTITLE9=Sally Mae
TTITLE10=Walkin the Boogie
TTITLE11=Just me and my Telephone
TTITLE12=Real gone Gal
TTITLE13=Miss Rosie Mae
TTITLE14=Please Take me Back
TTITLE15=I Love to Boogie
TTITLE16=Hobo Blues
TTITLE17=The Numbers
EXTD=
EXTT0=
EXTT1=
EXTT2=
EXTT3=
EXTT4=
EXTT5=
EXTT6=
EXTT7=
EXTT8=
EXTT9=
EXTT10=
EXTT11=
EXTT12=
EXTT13=
EXTT14=
EXTT15=
EXTT16=
EXTT17=
PLAYORDER=
